# xmcd
#
# Track frame offsets:
#	150
#	16761
#	33995
#	53644
#	73720
#	91965
#	109108
#	125143
#	141491
#	156509
#	178049
#	196015
#	219636
#	238335
#	255010
#
# Disc length: 3964 seconds
#
# Revision: 0
# Processed by: cddbd v1.5.2PL0 Copyright (c) Steve Scherf et al.
# Submitted via: EasyCDDAExtractor 11.0.2.1
#
DISCID=d30f7a0f
DTITLE=Demon One - Demons et merveilles
DYEAR=2007
DGENRE=Rap
TTITLE0=Seigneur De Guerre
TTITLE1=J'étais Comme Eux (Feat. Sopra
TTITLE2=South Side
TTITLE3=Mes Rêves (Feat. Dry)
TTITLE4=On Verra... (Feat. Diam's)
TTITLE5=Pour Toi
TTITLE6=Alors Comme ça
TTITLE7=La Bonne Combinaison
TTITLE8=Dans Ma Tête
TTITLE9=Démons Et Merveilles
TTITLE10=Solitude
TTITLE11=Fusion (Feat. Béné)
TTITLE12=Déception
TTITLE13=Merci à La Vie (Feat. Amina)
TTITLE14=Le Mot De La Faim
EXTD=
EXTT0=
EXTT1=
EXTT2=
EXTT3=
EXTT4=
EXTT5=
EXTT6=
EXTT7=
EXTT8=
EXTT9=
EXTT10=
EXTT11=
EXTT12=
EXTT13=
EXTT14=
PLAYORDER=
